<svg width="81" height="181" viewBox="0 0 81 181" fill="none" xmlns="http://www.w3.org/2000/svg">
<path fill-rule="evenodd" clip-rule="evenodd" d="M26.1453 23.1377C24.1345 20.7756 22.7736 17.8809 23.001 14.6372C23.6562 5.29139 36.6558 7.34736 39.1845 12.0643C41.7132 16.7813 41.4127 28.7463 38.1446 29.5894C36.8413 29.9256 34.0648 29.102 31.2391 27.3975L33.0127 39.9555H22.5399L26.1453 23.1377Z" fill="#B28B67"/>
<path fill-rule="evenodd" clip-rule="evenodd" d="M43.8243 5.52527C43.6074 4.76236 43.0241 4.10915 42.2379 3.91536C42.0473 3.86835 41.8504 3.84937 41.6543 3.85728C41.5839 3.8601 41.5642 3.8804 41.5313 3.83116C41.5069 3.79465 41.5063 3.70545 41.4963 3.66255C41.4651 3.52913 41.426 3.39738 41.3778 3.26903C41.2133 2.8313 40.9369 2.44389 40.6036 2.11754C39.9804 1.50701 39.1382 1.08565 38.2632 1.00941C37.7843 0.967714 37.309 1.04558 36.8562 1.20148C36.6218 1.28219 36.3946 1.38268 36.1732 1.49379C36.1065 1.52723 35.8903 1.69102 35.8234 1.68041C35.7495 1.6687 35.6011 1.48498 35.541 1.43886C34.7986 0.868797 33.8818 0.644665 32.957 0.651519C31.9132 0.659234 30.9081 0.711432 30.0376 1.34824C29.8533 1.48306 29.6778 1.63067 29.5107 1.78609C29.4227 1.86791 29.3375 1.95281 29.2562 2.04123C29.2071 2.09457 29.1594 2.14912 29.1134 2.20513C29.0354 2.3002 29.0479 2.33144 28.9387 2.2651C28.5197 2.01037 28.0342 1.89123 27.5452 1.95137C27.2549 1.98711 26.9723 2.07435 26.7041 2.18918C26.6128 2.22827 26.4014 2.38421 26.304 2.38573C26.2074 2.38722 25.999 2.24267 25.8995 2.20593C25.3623 2.00744 24.7832 1.95851 24.2184 2.05023C23.6359 2.14487 23.0637 2.37747 22.5701 2.69888C22.3328 2.85349 22.1256 3.0248 21.9593 3.25469C21.8875 3.35396 21.8225 3.45895 21.7411 3.55098C21.6935 3.60487 21.5991 3.66017 21.5735 3.72837C21.5888 3.68753 20.9364 3.43584 20.8749 3.41975C20.5469 3.33402 20.213 3.3514 19.8918 3.45717C19.2879 3.65607 18.7686 4.10209 18.3417 4.55939C18.1225 4.79428 17.9306 5.05392 17.7678 5.33053C17.6897 5.46303 17.6184 5.59932 17.5531 5.7385C17.5214 5.80593 17.5005 5.89028 17.4588 5.95102C17.405 6.02929 17.3689 6.03078 17.2716 6.06491C16.7774 6.23819 16.3268 6.5315 15.9837 6.92782C15.6367 7.3288 15.4115 7.82258 15.3171 8.34257C15.3116 8.3732 15.3083 8.50013 15.2903 8.51671C15.2658 8.53954 15.1664 8.52944 15.1288 8.53386C14.9986 8.54915 14.8693 8.57189 14.7418 8.60212C14.5066 8.65782 14.2777 8.73978 14.0612 8.84699C13.2173 9.26488 12.6138 10.0483 12.3184 10.9299C12.0085 11.855 12.014 12.915 12.3844 13.8228C12.4442 13.9695 12.5154 14.1118 12.599 14.2465C12.6504 14.3291 12.667 14.3293 12.6336 14.416C12.5965 14.5125 12.5286 14.6063 12.4844 14.7006C12.3405 15.0082 12.2398 15.3345 12.1762 15.6677C12.0719 16.2144 12.0202 16.7889 12.1231 17.3397C12.1709 17.5955 12.2542 17.8455 12.3812 18.0733C12.4459 18.1895 12.5217 18.2996 12.6072 18.4015C12.6517 18.4544 12.6988 18.505 12.7482 18.5534C12.7764 18.581 12.8134 18.6052 12.8374 18.6361C12.8959 18.7114 12.9083 18.6495 12.8781 18.7601C12.8358 18.9147 12.7401 19.0673 12.6815 19.2177C12.6211 19.3728 12.5665 19.5299 12.5165 19.6887C12.4154 20.01 12.3298 20.3372 12.2764 20.6701C12.1737 21.3091 12.1917 21.99 12.4937 22.5764C12.6229 22.8273 12.8081 23.0474 13.0328 23.2186C13.1428 23.3023 13.2619 23.3745 13.3869 23.4338C13.4511 23.4643 13.5331 23.4774 13.5624 23.5395C13.5939 23.6063 13.5471 23.739 13.5364 23.8137C13.4435 24.4637 13.397 25.1461 13.59 25.783C13.7678 26.3697 14.1593 26.8876 14.6676 27.2305C15.6536 27.8958 16.9828 27.8582 18.0188 27.3257C18.2889 27.1869 18.5415 27.0145 18.7669 26.8112C19.3408 27.5844 20.5218 27.5599 21.3607 27.3396C22.4057 27.0651 23.2442 26.3379 23.7274 25.3824C24.388 26.1873 25.7744 25.9261 26.2325 25.053C26.3447 24.8393 26.4112 24.6038 26.4439 24.3655C26.4611 24.2401 26.4501 24.1137 26.4631 23.9894C26.4796 23.8309 26.5854 23.677 26.6461 23.5237C26.7645 23.2255 26.838 22.9174 26.8412 22.5956C26.8428 22.4277 26.8216 22.2639 26.8056 22.0973C26.7912 21.9473 26.8328 21.8076 26.8564 21.6595C26.5884 21.7037 26.2619 21.6314 26.0094 21.5536C25.7616 21.4773 25.5295 21.2762 25.3546 21.0927C24.9485 20.6664 24.7004 20.1075 24.5307 19.5514C24.1583 18.3306 24.311 16.866 25.5378 16.1961C26.1094 15.884 27.8216 15.885 28.5023 16.0393C29.2181 16.2014 30.0295 17.782 30.0694 17.9306C30.0941 18.0225 30.0817 18.1363 30.1661 18.1976C30.3516 18.3323 30.6575 18.0985 30.7943 17.9832C31.0304 17.784 31.1988 17.5191 31.3446 17.2505C31.6624 16.6655 31.9186 16.038 32.0996 15.3975C32.2391 14.9037 32.3283 14.3945 32.5107 13.9133C32.6921 13.4345 32.9782 13.0065 33.4229 12.7352C33.9068 12.4401 34.4613 12.2847 34.9925 12.0993C35.519 11.9155 36.0364 11.6909 36.4445 11.3009C36.5342 11.2152 36.6214 11.124 36.6936 11.0231C36.7506 10.9434 36.807 10.7908 36.8939 10.7403C37.0289 10.6617 37.226 10.8661 37.3428 10.9403C37.919 11.3066 38.3997 11.8173 38.7874 12.3753C39.173 12.9303 39.4894 13.4643 39.7465 14.084C39.9371 14.5436 40.0562 15.1322 40.3916 15.5088C40.5413 15.677 41.6543 15.7787 42.0148 15.6319C42.3753 15.4851 42.7793 15.1038 42.9003 14.8649C43.0242 14.6203 43.0538 14.3517 43.0008 14.084C42.9697 13.9265 42.9061 13.7793 42.8713 13.6246C42.8421 13.4947 42.8155 13.3718 42.7523 13.2528C42.6325 13.0272 42.4279 12.865 42.1811 12.7972C42.4379 12.5603 42.6507 12.2768 42.798 11.9599C42.951 11.6306 43.0807 11.2302 43.1174 10.8689C43.1474 10.5753 43.1012 10.2713 42.9406 10.019C42.7722 9.75442 42.4738 9.58179 42.2157 9.41674C42.61 9.10797 42.9475 8.73247 43.225 8.31673C43.7645 7.50825 44.0983 6.48914 43.8243 5.52527Z" fill="#191847"/>
<path fill-rule="evenodd" clip-rule="evenodd" d="M19.0819 76.0946L40.0633 131.656L54.7697 172.608H63.1553L42.9399 76.0946L19.0819 76.0946Z" fill="#1F28CF"/>
<path fill-rule="evenodd" clip-rule="evenodd" d="M13.896 76.0946C13.668 95.1589 13.8328 120.826 13.3015 122.014C12.9472 122.807 1.92828 131.833 -19.7553 149.094L-15.4331 156.45C10.3103 139.835 23.8401 130.421 25.1562 128.208C27.1305 124.887 37.0488 94.3331 42.2091 76.0946H13.896Z" fill="#2B44FF"/>
<path fill-rule="evenodd" clip-rule="evenodd" d="M53.9911 180.469L54.4275 171.298H63.5912C67.9364 174.355 73.6092 176.83 80.6096 178.722V180.469H64.0276L58.3548 179.595V180.469H53.9911Z" fill="#191847"/>
<path fill-rule="evenodd" clip-rule="evenodd" d="M56.0685 70.5703L69.9879 80.7997C73.7632 81.8192 76.9173 83.0876 79.4502 84.605C80.0485 85.1506 80.7717 86.2556 78.2903 86.0646C75.8089 85.8737 73.1902 85.7845 72.8479 86.6315C72.5055 87.4785 74.0071 88.4915 73.315 89.6344C72.8536 90.3963 70.6737 88.4858 66.7754 83.903L52.9915 78.1826L56.0685 70.5703ZM2.62487 70.9234L11.7439 70.9592C6.1133 89.1499 3.07364 98.8018 2.62487 99.9149C1.61513 102.419 3.75187 106.233 4.66562 108.283C1.68956 109.616 2.00666 104.68 -1.74756 106.428C-5.17424 108.023 -7.78091 110.914 -11.7399 108.47C-12.2267 108.169 -12.7601 107.037 -11.4713 106.153C-8.26064 103.95 -3.63382 100.094 -3.00867 98.8242C-2.15616 97.0934 -0.278311 87.7931 2.62487 70.9234Z" fill="#B28B67"/>
<path fill-rule="evenodd" clip-rule="evenodd" d="M28.5395 32.629L32.3129 31.9813C46.3131 44.0849 52.0635 67.3376 69.2242 79.6554L65.0938 84.7793C35.323 81.0903 27.944 52.7277 28.5395 32.629Z" fill="#E87613"/>
<path fill-rule="evenodd" clip-rule="evenodd" d="M12.0907 80.0856C27.2204 80.0856 38.3495 80.0856 45.4779 80.0856C47.0036 80.0856 46.7161 77.881 46.4955 76.7685C43.9503 63.9289 34.0145 50.0885 34.0145 31.8118L24.384 30.3004C16.4184 43.1216 13.6637 58.9071 12.0907 80.0856Z" fill="#DDE3E9"/>
<path fill-rule="evenodd" clip-rule="evenodd" d="M12.3588 42.903C10.9601 42.5007 9.8525 41.5622 9.03595 40.0877C5.51599 33.7312 6.78721 30.2316 10.5489 29.0812C14.3106 27.9308 17.6653 30.3004 23.6587 30.3004C23.9847 30.3004 24.2833 30.3208 24.5544 30.3618L27.5693 30.5339C36.2192 59.8725 38.6048 79.4467 34.7261 89.2566H8.44764C6.89067 92.89 5.40078 95.947 3.97798 98.4276H-3.18242C-3.85632 76.6213 1.32411 58.1131 12.3588 42.903Z" fill="#FF9B21"/>
<path fill-rule="evenodd" clip-rule="evenodd" d="M14.1699 74.1888C14.9964 81.1091 16.3396 86.1316 18.1997 89.2564H8.44763C10.2638 85.0182 12.1712 79.9956 14.1699 74.1888H14.1699Z" fill="black" fill-opacity="0.1"/>
</svg>
