<svg width="108" height="180" viewBox="0 0 108 180" fill="none" xmlns="http://www.w3.org/2000/svg">
<path fill-rule="evenodd" clip-rule="evenodd" d="M53.5057 23.1377C51.4949 20.7756 50.134 17.8809 50.3614 14.6372C51.0166 5.29139 64.0162 7.34736 66.5449 12.0643C69.0736 16.7813 68.7731 28.7463 65.505 29.5894C64.2017 29.9256 61.4252 29.102 58.5995 27.3975L60.3732 39.9555H49.9003L53.5057 23.1377Z" fill="#B28B67"/>
<path fill-rule="evenodd" clip-rule="evenodd" d="M71.1847 5.52527C70.9678 4.76236 70.3845 4.10915 69.5983 3.91536C69.4077 3.86835 69.2108 3.84937 69.0147 3.85728C68.9443 3.8601 68.9246 3.8804 68.8917 3.83116C68.8673 3.79465 68.8668 3.70545 68.8567 3.66255C68.8255 3.52913 68.7864 3.39738 68.7382 3.26903C68.5737 2.8313 68.2973 2.44389 67.9641 2.11754C67.3408 1.50701 66.4986 1.08565 65.6236 1.00941C65.1448 0.967714 64.6694 1.04558 64.2166 1.20148C63.9822 1.28219 63.755 1.38268 63.5336 1.49379C63.467 1.52723 63.2507 1.69102 63.1838 1.68041C63.11 1.6687 62.9615 1.48498 62.9014 1.43886C62.159 0.868797 61.2422 0.644665 60.3174 0.651519C59.2736 0.659234 58.2685 0.711432 57.398 1.34824C57.2137 1.48306 57.0382 1.63067 56.8711 1.78609C56.7831 1.86791 56.6979 1.95281 56.6166 2.04123C56.5675 2.09457 56.5198 2.14912 56.4738 2.20513C56.3958 2.3002 56.4083 2.33144 56.2991 2.2651C55.8801 2.01037 55.3947 1.89123 54.9056 1.95137C54.6153 1.98711 54.3328 2.07435 54.0645 2.18918C53.9732 2.22827 53.7618 2.38421 53.6644 2.38573C53.5679 2.38722 53.3594 2.24267 53.2599 2.20593C52.7227 2.00744 52.1436 1.95851 51.5789 2.05023C50.9963 2.14487 50.4241 2.37747 49.9306 2.69888C49.6932 2.85349 49.4861 3.0248 49.3197 3.25469C49.2479 3.35396 49.1829 3.45895 49.1015 3.55098C49.0539 3.60487 48.9595 3.66017 48.9339 3.72837C48.9492 3.68753 48.2968 3.43584 48.2353 3.41975C47.9073 3.33402 47.5734 3.3514 47.2522 3.45717C46.6483 3.65607 46.129 4.10209 45.7021 4.55939C45.4829 4.79428 45.2911 5.05392 45.1282 5.33053C45.0502 5.46303 44.9788 5.59932 44.9135 5.7385C44.8818 5.80593 44.8609 5.89028 44.8192 5.95102C44.7655 6.02929 44.7294 6.03078 44.632 6.06491C44.1378 6.23819 43.6873 6.5315 43.3442 6.92782C42.9971 7.3288 42.7719 7.82258 42.6775 8.34257C42.672 8.3732 42.6687 8.50013 42.6507 8.51671C42.6262 8.53954 42.5268 8.52944 42.4892 8.53386C42.359 8.54915 42.2297 8.57189 42.1022 8.60212C41.867 8.65782 41.6382 8.73978 41.4217 8.84699C40.5777 9.26488 39.9742 10.0483 39.6788 10.9299C39.3689 11.855 39.3744 12.915 39.7448 13.8228C39.8046 13.9695 39.8758 14.1118 39.9595 14.2465C40.0108 14.3291 40.0274 14.3293 39.994 14.416C39.9569 14.5125 39.889 14.6063 39.8449 14.7006C39.7009 15.0082 39.6002 15.3345 39.5366 15.6677C39.4323 16.2144 39.3806 16.7889 39.4835 17.3397C39.5313 17.5955 39.6146 17.8455 39.7416 18.0733C39.8063 18.1895 39.8821 18.2996 39.9677 18.4015C40.0121 18.4544 40.0592 18.505 40.1086 18.5534C40.1368 18.581 40.1738 18.6052 40.1978 18.6361C40.2564 18.7114 40.2687 18.6495 40.2385 18.7601C40.1962 18.9147 40.1005 19.0673 40.0419 19.2177C39.9815 19.3728 39.9269 19.5299 39.8769 19.6887C39.7758 20.01 39.6903 20.3372 39.6368 20.6701C39.5341 21.3091 39.5521 21.99 39.8541 22.5764C39.9833 22.8273 40.1685 23.0474 40.3932 23.2186C40.5032 23.3023 40.6223 23.3745 40.7473 23.4338C40.8115 23.4643 40.8935 23.4774 40.9228 23.5395C40.9543 23.6063 40.9075 23.739 40.8968 23.8137C40.804 24.4637 40.7574 25.1461 40.9504 25.783C41.1282 26.3697 41.5197 26.8876 42.028 27.2305C43.014 27.8958 44.3432 27.8582 45.3792 27.3257C45.6493 27.1869 45.9019 27.0145 46.1273 26.8112C46.7012 27.5844 47.8823 27.5599 48.7211 27.3396C49.7661 27.0651 50.6046 26.3379 51.0878 25.3824C51.7484 26.1873 53.1348 25.9261 53.5929 25.053C53.7051 24.8393 53.7716 24.6038 53.8043 24.3655C53.8215 24.2401 53.8106 24.1137 53.8235 23.9894C53.84 23.8309 53.9458 23.677 54.0065 23.5237C54.1249 23.2255 54.1984 22.9174 54.2016 22.5956C54.2032 22.4277 54.182 22.2639 54.166 22.0973C54.1516 21.9473 54.1932 21.8076 54.2168 21.6595C53.9488 21.7037 53.6223 21.6314 53.3698 21.5536C53.122 21.4773 52.8899 21.2762 52.715 21.0927C52.3089 20.6664 52.0608 20.1075 51.8911 19.5514C51.5187 18.3306 51.6714 16.866 52.8982 16.1961C53.4698 15.884 55.182 15.885 55.8627 16.0393C56.5785 16.2014 57.3899 17.782 57.4298 17.9306C57.4545 18.0225 57.4421 18.1363 57.5265 18.1976C57.712 18.3323 58.0179 18.0985 58.1547 17.9832C58.3908 17.784 58.5592 17.5191 58.705 17.2505C59.0228 16.6655 59.279 16.038 59.46 15.3975C59.5995 14.9037 59.6887 14.3945 59.8711 13.9133C60.0525 13.4345 60.3386 13.0065 60.7833 12.7352C61.2672 12.4401 61.8218 12.2847 62.3529 12.0993C62.8794 11.9155 63.3968 11.6909 63.8049 11.3009C63.8946 11.2152 63.9818 11.124 64.054 11.0231C64.111 10.9434 64.1674 10.7908 64.2543 10.7403C64.3893 10.6617 64.5864 10.8661 64.7032 10.9403C65.2794 11.3066 65.7601 11.8173 66.1479 12.3753C66.5334 12.9303 66.8498 13.4643 67.1069 14.084C67.2976 14.5436 67.4166 15.1322 67.752 15.5088C67.9017 15.677 69.0147 15.7787 69.3752 15.6319C69.7357 15.4851 70.1397 15.1038 70.2607 14.8649C70.3846 14.6203 70.4142 14.3517 70.3612 14.084C70.3301 13.9265 70.2665 13.7793 70.2318 13.6246C70.2025 13.4947 70.1759 13.3718 70.1127 13.2528C69.9929 13.0272 69.7883 12.865 69.5415 12.7972C69.7983 12.5603 70.0111 12.2768 70.1584 11.9599C70.3114 11.6306 70.4411 11.2302 70.4779 10.8689C70.5078 10.5753 70.4616 10.2713 70.3011 10.019C70.1326 9.75442 69.8343 9.58179 69.5761 9.41674C69.9704 9.10797 70.3079 8.73247 70.5854 8.31673C71.125 7.50825 71.4587 6.48914 71.1847 5.52527Z" fill="#191847"/>
<path fill-rule="evenodd" clip-rule="evenodd" d="M46.4423 76.0945L67.4237 131.656L82.1301 172.608H90.5157L70.3003 76.0945L46.4423 76.0945Z" fill="#1F28CF"/>
<path fill-rule="evenodd" clip-rule="evenodd" d="M41.2565 76.0945C41.0284 95.1588 41.1933 120.826 40.6619 122.014C40.3076 122.806 29.2887 131.833 7.60516 149.094L11.9274 156.45C37.6708 139.835 51.2005 130.421 52.5167 128.208C54.4909 124.887 64.4092 94.333 69.5696 76.0945H41.2565Z" fill="#2B44FF"/>
<path fill-rule="evenodd" clip-rule="evenodd" d="M0.000335006 154.045L7.30129 148.483L13.1914 155.509C13.6441 160.805 15.3959 166.745 18.4468 173.328L17.1096 174.451L6.45136 161.739L3.47374 156.828L2.80513 157.39L0.000335006 154.045Z" fill="#191847"/>
<path fill-rule="evenodd" clip-rule="evenodd" d="M81.3515 180.469L81.7879 171.298H90.9516C95.2968 174.355 100.97 176.83 107.97 178.722V180.469H91.388L85.7152 179.595V180.469H81.3515Z" fill="#191847"/>
<path fill-rule="evenodd" clip-rule="evenodd" d="M83.4289 70.5703L97.3484 80.7997C101.124 81.8192 104.278 83.0876 106.811 84.605C107.409 85.1506 108.132 86.2556 105.651 86.0646C103.169 85.8737 100.551 85.7845 100.208 86.6315C99.8659 87.4785 101.368 88.4915 100.675 89.6344C100.214 90.3963 98.0341 88.4858 94.1358 83.903L80.3519 78.1826L83.4289 70.5703ZM29.9853 70.9234L39.1043 70.9592C33.4737 89.1499 30.4341 98.8018 29.9853 99.9149C28.9756 102.419 31.1123 106.233 32.0261 108.283C29.05 109.616 29.3671 104.68 25.6129 106.428C22.1862 108.023 19.5795 110.914 15.6205 108.47C15.1338 108.169 14.6004 107.037 15.8891 106.153C19.0998 103.95 23.7266 100.094 24.3518 98.8242C25.2043 97.0934 27.0821 87.7931 29.9853 70.9234Z" fill="#B28B67"/>
<path fill-rule="evenodd" clip-rule="evenodd" d="M55.9 32.6289L59.6733 31.9812C73.6735 44.0848 79.4239 67.3374 96.5847 79.6553L92.4543 84.7792C62.6834 81.0902 55.3045 52.7276 55.9 32.6289Z" fill="#E87613"/>
<path fill-rule="evenodd" clip-rule="evenodd" d="M39.4512 80.0855C54.5809 80.0855 65.7099 80.0855 72.8384 80.0855C74.364 80.0855 74.0766 77.8808 73.856 76.7683C71.3107 63.9288 61.3749 50.0884 61.3749 31.8116L51.7445 30.3003C43.7789 43.1215 41.0242 58.9069 39.4512 80.0855Z" fill="#DDE3E9"/>
<path fill-rule="evenodd" clip-rule="evenodd" d="M39.7193 42.903C38.3206 42.5007 37.213 41.5622 36.3964 40.0877C32.8765 33.7312 34.1477 30.2316 37.9094 29.0812C41.6711 27.9308 45.0258 30.3004 51.0192 30.3004C51.3452 30.3004 51.6438 30.3208 51.9149 30.3618L54.9298 30.5339C63.5797 59.8725 65.9653 79.4467 62.0865 89.2566H35.8081C34.2511 92.89 32.7613 95.947 31.3384 98.4276H24.1781C23.5042 76.6213 28.6846 58.1131 39.7193 42.903Z" fill="#FF9B21"/>
<path fill-rule="evenodd" clip-rule="evenodd" d="M41.5303 74.189C42.3568 81.1093 43.7 86.1318 45.5601 89.2565H35.808C37.6242 85.0183 39.5316 79.9958 41.5303 74.189H41.5303Z" fill="black" fill-opacity="0.1"/>
</svg>
