<svg width="23" height="15" viewBox="0 0 23 15" fill="none" xmlns="http://www.w3.org/2000/svg">
<path d="M23 11.3473L19.4154 14.9263L15.8053 11.3312L17.0726 10.0586L18.5043 11.4844V2.78689C18.5059 2.54982 18.4146 2.32661 18.2474 2.15833C18.0786 1.9883 17.8531 1.89477 17.6127 1.89477H7.94415L6.14079 0.0987702H17.6127C18.3351 0.0987702 19.013 0.38076 19.5215 0.892449C20.0276 1.40203 20.304 2.07761 20.3001 2.79549V11.5051L21.731 10.0763L23 11.3473ZM14.7326 13.1194H5.38729C5.14671 13.1194 4.9214 13.0259 4.75259 12.8561C4.58537 12.6878 4.49412 12.4644 4.4957 12.2273V3.52985L5.92741 4.9556L7.19469 3.68305L3.58463 0.0878906L0 3.66708L1.26904 4.93787L2.69987 3.50932V12.2187C2.69601 12.9366 2.97239 13.6124 3.47846 14.1218C3.98699 14.6335 4.66486 14.9154 5.38729 14.9154H16.8592L15.0558 13.1194H14.7326Z" fill="#DD00F0"/>
</svg>
