<svg width="188" height="223" viewBox="0 0 188 223" fill="none" xmlns="http://www.w3.org/2000/svg">
<g opacity="0.3">
<path fill-rule="evenodd" clip-rule="evenodd" d="M107.705 43.9274C110.498 40.6498 112.387 36.6331 112.072 32.1322C111.162 19.164 93.1095 22.0168 89.5979 28.5621C86.0864 35.1073 86.5037 51.7099 91.042 52.8797C92.8519 53.3462 96.7075 52.2034 100.632 49.8382L98.1685 67.2635H112.712L107.705 43.9274Z" fill="#B28B67"/>
<path fill-rule="evenodd" clip-rule="evenodd" d="M97.8874 21.0185C99.8042 20.7042 104.965 20.4881 105.917 20.4882C106.525 20.4882 107.184 20.6272 107.545 20.0687C107.84 19.6113 107.732 18.8379 107.82 18.3071C107.922 17.6906 108.067 17.082 108.214 16.475C108.632 14.7476 109.264 13.1043 110.148 11.5613C111.808 8.66663 114.238 6.39919 117.307 5.07978C120.696 3.62294 124.531 3.28936 128.176 3.58485C132.077 3.901 135.608 5.18874 139.291 6.40059C142.801 7.55537 146.477 8.00992 150.148 7.44599C153.847 6.87788 156.641 4.87329 159.761 2.9707C162.955 1.0229 166.604 -0.251035 170.38 0.0418116C173.904 0.315265 177.152 1.77043 180.066 3.71432C182.793 5.53307 185.043 7.72126 186.313 10.801C187.679 14.1138 187.678 17.7502 185.431 20.6779C182.174 24.9218 176.128 26.0192 171.097 25.9101C168.188 25.8472 165.33 25.3161 162.583 24.3499C158.92 23.0613 155.754 20.8773 152.327 19.1053C150.718 18.2738 149.056 17.5909 147.313 17.0989C145.622 16.6213 143.956 16.4023 142.425 17.4238C140.806 18.5045 139.354 19.5661 137.501 20.2427C135.724 20.8917 133.841 21.2547 131.947 21.2401C128.262 21.2116 124.63 20.0635 121.051 19.2945C118.133 18.6675 115.01 18.0426 112.035 18.6453C110.793 18.8969 108.98 19.4162 108.532 20.7064C116.079 22.0742 119.043 31.4079 116.915 38.2598C115.767 41.958 108.864 46.2811 106.18 44.3369C104.48 43.1052 105.512 41.4882 106.18 40.4208C107.46 38.3766 107.897 35.7507 105.53 34.3275C103.488 33.1 101.341 36.0149 101.3 36.0117C100.739 35.9675 95.8898 33.2249 92.5486 29.2228C89.2525 29.4182 88.7524 27.2448 89.5394 25.4674C90.3265 23.69 95.239 21.4531 97.8874 21.0185Z" fill="#191847"/>
<path d="M118.772 223C93.0019 223 72.1113 203.059 72.1113 178.461C72.1113 153.862 93.0019 133.921 118.772 133.921C144.541 133.921 165.432 153.862 165.432 178.461C165.432 203.059 144.541 223 118.772 223Z" fill="#C5CFD6"/>
<path fill-rule="evenodd" clip-rule="evenodd" d="M30.5963 216.128C38.3605 198.944 43.9756 183.98 46.2294 176.085C50.0886 162.567 53.0244 150.673 53.7664 146.23C55.5358 135.638 40.1549 135.021 38.1219 140.285C35.0448 148.253 29.673 174.433 23.2183 213.976L30.5963 216.128ZM120.657 162.198C113.534 159.383 88.5867 150.57 76.5549 148.078C73.0974 147.361 69.7463 146.696 66.5957 146.094C57.231 144.307 52.3792 161.201 61.3985 162.499C83.8603 165.732 115.704 169.07 118.429 169.445C122.248 169.97 125.134 163.968 120.657 162.198Z" fill="#B28B67"/>
<path fill-rule="evenodd" clip-rule="evenodd" d="M60.848 141.445L99.3804 121.83V117.56H94.7979C57.5195 127.059 38.4703 133.147 37.6502 135.823C37.6414 135.851 37.6333 135.88 37.626 135.909C37.6072 135.934 37.5888 135.959 37.5707 135.983C30.1829 146.144 25.7584 195.747 24.3061 199.461L38.4628 201.573C43.8781 181.493 61.2038 167.503 60.7436 143.453C60.8678 142.747 60.8992 142.078 60.848 141.445Z" fill="#1F28CF"/>
<path fill-rule="evenodd" clip-rule="evenodd" d="M96.1789 153.095C99.7045 152.389 102.951 151.759 105.729 151.272C123.674 148.124 128.907 138.518 125.813 117.56L92.7499 117.56C87.3489 119.111 59.2804 130.882 44.7171 137.143C35.0785 141.286 38.1169 156.224 43.5753 160.111C43.6049 160.35 43.7031 160.512 43.8781 160.584C73.2404 172.754 96.4687 166.369 104.228 168.409L107.817 157.087L96.1789 153.095Z" fill="#2B44FF"/>
<path fill-rule="evenodd" clip-rule="evenodd" d="M118.222 160.399C120.145 160.583 121.511 160.872 122.319 161.266C123.301 161.745 124.654 162.607 126.379 163.853C125.823 164.993 120.829 175.233 111.396 194.573C108.368 194.084 107.168 192.928 107.796 191.106C108.425 189.283 108.931 187.762 109.317 186.541L109.915 169.159C109.927 168.824 110.207 168.562 110.542 168.574C110.547 168.574 110.553 168.574 110.559 168.575L113.233 168.743C114.752 167.513 115.755 166.4 116.24 165.405C116.635 164.596 116.853 163.32 116.895 161.576L116.895 161.576C116.911 160.907 117.466 160.378 118.135 160.394C118.164 160.394 118.193 160.396 118.222 160.399Z" fill="#E4E4E4"/>
<path fill-rule="evenodd" clip-rule="evenodd" d="M34.1298 212.942C34.8078 214.752 35.1467 216.106 35.1467 217.004C35.1467 218.097 34.9647 219.692 34.6006 221.788C33.3329 221.788 21.9402 221.788 0.422325 221.788C-0.465847 218.852 0.0468559 217.267 1.96044 217.032C3.87402 216.798 5.46366 216.587 6.72937 216.398L22.6151 209.316C22.9208 209.18 23.279 209.317 23.4153 209.623C23.4176 209.628 23.4199 209.634 23.4221 209.639L24.4432 212.116C26.2147 212.942 27.6542 213.356 28.7617 213.356C29.6616 213.356 30.9043 212.992 32.4898 212.265L32.4898 212.265C33.0983 211.986 33.8177 212.254 34.0966 212.862C34.1086 212.888 34.1197 212.915 34.1298 212.942Z" fill="#E4E4E4"/>
<path fill-rule="evenodd" clip-rule="evenodd" d="M61.8098 100.966L39.8524 91.3235C36.006 87.4906 32.2918 84.5774 28.7097 82.5839C27.6385 82.2429 25.8086 82.1399 27.761 84.9916C29.7134 87.8433 31.6388 90.9307 30.8587 91.9302C30.0786 92.9296 27.8187 91.8265 26.9259 93.4518C26.3306 94.5353 30.14 95.8314 38.3539 97.3401L54.7987 109.948L61.8098 100.966ZM150.581 103.622L138.163 106.086C150.651 129.359 157.348 141.693 158.254 143.09C160.293 146.232 158.391 151.99 157.688 155.022C162.097 156.048 160.358 149.413 165.937 150.798C171.029 152.063 175.346 155.308 180.094 150.931C180.678 150.393 181.106 148.712 179.115 147.849C174.157 145.7 166.831 141.676 165.643 140.113C164.023 137.983 159.002 125.819 150.581 103.622Z" fill="#B28B67"/>
<path fill-rule="evenodd" clip-rule="evenodd" d="M104.413 57.1633L99.1732 56.2645C87.76 67.3358 83.1025 93.9343 75.4965 97.4551C68.3053 100.784 58.1112 97.5626 45.9939 93.2132L42.2831 101.504C53.2928 113.415 76.7477 123.478 86.2549 117.734C101.455 108.549 104.964 75.7436 104.413 57.1633Z" fill="#DB2721"/>
<path fill-rule="evenodd" clip-rule="evenodd" d="M127.255 123.014C106.245 123.014 90.7904 123.014 80.8912 123.014C78.7726 123.014 79.1718 119.954 79.4781 118.411C83.0127 100.595 96.8104 81.3899 96.8104 56.0293L110.184 53.9321C121.246 71.7227 125.071 93.6265 127.255 123.014Z" fill="#DDE3E9"/>
<path fill-rule="evenodd" clip-rule="evenodd" d="M131.88 104.976C141.331 122.025 149.276 134.299 155.714 141.799L165.432 139.895C159.172 101.072 141.043 72.4171 111.047 53.9321H110.894L105.751 53.9321C93.7455 94.8581 90.4357 122.127 95.822 135.739H137.557C136.897 125.779 134.78 115.246 131.88 104.976H131.88Z" fill="#FF4133"/>
</g>
</svg>
