<svg width="148" height="245" viewBox="0 0 148 245" fill="none" xmlns="http://www.w3.org/2000/svg">
<path fill-rule="evenodd" clip-rule="evenodd" d="M73.0917 22.5367C70.2442 19.1944 68.317 15.0983 68.6391 10.5086C69.5669 -2.71579 87.9757 0.1934 91.5566 6.86791C95.1374 13.5424 94.7119 30.4729 90.084 31.6658C88.2383 32.1415 84.3066 30.9762 80.305 28.5642L82.8167 46.3337H67.986L73.0917 22.5367Z" fill="#B28B67"/>
<path fill-rule="evenodd" clip-rule="evenodd" d="M81.0464 11.969C81.6141 19.877 83.1159 23.831 85.5516 23.831C89.2054 23.831 92.3054 21.5114 93.9086 21.5114C95.0772 21.5114 94.8163 22.9739 94.0416 24.0582C93.4025 24.9529 90.2901 25.8152 90.2901 27.2021C90.2901 28.589 92.7492 27.516 92.7492 28.3386C92.7492 29.6992 93.1814 32.2575 90.8198 32.2575C88.4299 32.2575 81.5775 31.3865 80.4032 27.8395C79.6454 25.5503 79.1554 20.8067 78.9332 13.6086C78.7882 13.5914 78.6407 13.5825 78.4911 13.5825C76.4434 13.5825 74.7834 15.2425 74.7834 17.2902C74.7834 18.3297 75.2112 19.2693 75.9003 19.9426C75.0424 21.1535 74.0809 22.4185 72.9792 23.7238C68.8402 21.2405 65.7688 13.9712 69.8154 6.98797C70.9339 3.567 73.4659 1.73974 76.4564 0.891275C78.8788 -0.122026 81.3935 -0.236277 83.5162 0.371188C87.6774 0.728109 91.3932 1.99697 92.4462 2.75051C92.4462 6.69006 91.6829 7.85891 85.1629 7.75588C83.5608 8.60196 82.3292 10.0589 81.0464 11.969Z" fill="#191847"/>
<path fill-rule="evenodd" clip-rule="evenodd" d="M63.0422 97.6233L85.4459 176.243L101.792 234.189H113.714L96.344 97.6233H63.0422Z" fill="#191847"/>
<path fill-rule="evenodd" clip-rule="evenodd" d="M57.0509 97.6233C56.5327 138.145 54.7656 160.246 54.2215 163.928C53.6775 167.609 45.4507 191.03 29.5411 234.189H41.8916C62.1456 192.785 73.452 169.365 75.8106 163.928C78.1692 158.491 85.4481 136.389 96.4114 97.6233H57.0509Z" fill="#2F3676"/>
<path fill-rule="evenodd" clip-rule="evenodd" d="M28.4373 245.313L29.0552 232.336H42.0321C48.1853 236.661 56.2186 240.163 66.132 242.841V245.313H42.65L34.6167 244.077V245.313H28.4373Z" fill="#191847"/>
<path fill-rule="evenodd" clip-rule="evenodd" d="M100.119 245.313L100.737 232.336H113.714C119.867 236.661 127.9 240.163 137.814 242.841V245.313H114.332L106.298 244.077V245.313H100.119Z" fill="#191847"/>
<path fill-rule="evenodd" clip-rule="evenodd" d="M115.172 87.4953L133.825 103.31C139.058 105.122 143.388 107.224 146.817 109.616C147.608 110.445 148.52 112.076 145.034 111.561C141.547 111.047 137.857 110.662 137.29 111.824C136.722 112.986 138.744 114.564 137.653 116.109C136.926 117.139 134.035 114.227 128.981 107.373L110.073 97.9365L115.172 87.4953ZM30.7034 80.6521L41.6484 82.2416C29.8999 107.732 23.6015 121.212 22.753 122.683C20.8438 125.993 23.0891 131.759 23.9669 134.811C19.531 136.092 20.9477 129.238 15.3388 130.948C10.2193 132.508 5.99458 136.045 0.924167 131.839C0.30079 131.322 -0.224328 129.631 1.75705 128.646C6.69339 126.192 13.9411 121.7 15.0677 120.045C16.6041 117.788 21.816 104.657 30.7034 80.6521Z" fill="#B28B67"/>
<path fill-rule="evenodd" clip-rule="evenodd" d="M76.4487 36.0338L83.2306 33.791C92.4303 56.7726 106.151 79.0084 129.074 97.7902L123.406 107.57C103.259 95.7025 84.1876 86.4834 76.4487 68.6754C73.8513 62.6985 76.2368 43.1803 76.4487 36.0338Z" fill="#C5CFD6"/>
<path fill-rule="evenodd" clip-rule="evenodd" d="M53.1552 100.713C72.5824 102.773 87.8737 102.773 99.0292 100.713C100.411 100.458 100.629 98.1438 99.9884 96.5733C90.0073 72.1171 83.1629 50.7777 83.1629 33.791C81.3315 34.7143 78.1263 34.8527 73.5474 34.2061C61.2418 51.7115 55.5853 71.7969 53.1552 100.713Z" fill="#323337"/>
<path fill-rule="evenodd" clip-rule="evenodd" d="M70.4882 32.739H75.6165C76.8106 39.7619 80.5768 134.862 92.2035 165.972H29.2933C30.6572 137.473 41.4159 103.239 52.3146 74.5914C42.6775 83.4102 34.278 98.3531 27.116 119.42L15.3323 116.395C24.0939 78.6407 42.1078 50.8911 69.3739 33.1462C69.433 33.0098 69.4918 32.8741 69.5502 32.739H70.0041C70.1711 32.6318 70.3385 32.5249 70.5062 32.4185L70.4882 32.739Z" fill="#DDE3E9"/>
</svg>
