<svg width="115" height="147" viewBox="0 0 115 147" fill="none" xmlns="http://www.w3.org/2000/svg">
<path fill-rule="evenodd" clip-rule="evenodd" d="M75.3334 21.8239C77.2864 19.5314 78.6083 16.7219 78.3874 13.5739C77.751 4.50336 65.1245 6.49875 62.6684 11.0768C60.2123 15.6548 60.5042 27.2673 63.6785 28.0855C64.9444 28.4118 67.6411 27.6125 70.3858 25.9581L68.663 38.1461H78.8353L75.3334 21.8239Z" fill="#B28B67"/>
<path fill-rule="evenodd" clip-rule="evenodd" d="M58.1619 4.7303C58.3725 3.98987 58.9391 3.35591 59.7027 3.16783C59.8879 3.12221 60.0791 3.10378 60.2696 3.11146C60.338 3.11419 60.3571 3.1339 60.3891 3.0861C60.4128 3.05067 60.4133 2.9641 60.4231 2.92246C60.4534 2.79298 60.4913 2.6651 60.5382 2.54054C60.6979 2.1157 60.9664 1.73971 61.2901 1.42298C61.8955 0.830431 62.7135 0.421482 63.5633 0.347498C64.0285 0.307026 64.4902 0.382597 64.93 0.533907C65.1576 0.612234 65.3784 0.709767 65.5934 0.817599C65.6581 0.850055 65.8682 1.00902 65.9331 0.99872C66.0049 0.987363 66.1491 0.809054 66.2074 0.764296C66.9286 0.211024 67.8191 -0.00650482 68.7173 0.000147696C69.7311 0.00763523 70.7074 0.0582947 71.5529 0.676338C71.7319 0.807189 71.9024 0.950454 72.0647 1.10129C72.1502 1.1807 72.233 1.26309 72.3119 1.34891C72.3596 1.40068 72.4059 1.45362 72.4506 1.50798C72.5264 1.60026 72.5142 1.63057 72.6203 1.56619C73.0272 1.31896 73.4988 1.20333 73.9737 1.2617C74.2558 1.29638 74.5302 1.38106 74.7907 1.49251C74.8794 1.53045 75.0848 1.68178 75.1793 1.68326C75.2731 1.68471 75.4756 1.54442 75.5722 1.50876C76.0941 1.31612 76.6565 1.26863 77.2051 1.35765C77.7709 1.4495 78.3267 1.67524 78.8061 1.98719C79.0366 2.13725 79.2378 2.3035 79.3994 2.52663C79.4691 2.62296 79.5322 2.72486 79.6113 2.81419C79.6576 2.86649 79.7493 2.92015 79.7741 2.98634C79.7592 2.94671 80.3929 2.70243 80.4527 2.68681C80.7712 2.60362 81.0956 2.62048 81.4075 2.72314C81.9941 2.91617 82.4985 3.34906 82.9131 3.79288C83.1261 4.02085 83.3124 4.27284 83.4706 4.54131C83.5464 4.6699 83.6157 4.80217 83.6791 4.93725C83.7099 5.00269 83.7302 5.08456 83.7707 5.14351C83.8229 5.21947 83.858 5.22092 83.9525 5.25404C84.4326 5.42222 84.8702 5.70689 85.2034 6.09153C85.5405 6.48069 85.7592 6.95992 85.8509 7.46459C85.8563 7.49432 85.8595 7.61752 85.8769 7.63361C85.9008 7.65576 85.9973 7.64597 86.0339 7.65025C86.1603 7.66509 86.2859 7.68716 86.4098 7.7165C86.6382 7.77055 86.8605 7.85011 87.0707 7.95415C87.8905 8.35973 88.4767 9.12009 88.7636 9.97568C89.0646 10.8736 89.0593 11.9023 88.6995 12.7834C88.6414 12.9257 88.5722 13.0639 88.491 13.1945C88.4411 13.2748 88.425 13.275 88.4574 13.3591C88.4935 13.4528 88.5594 13.5438 88.6023 13.6353C88.7421 13.9338 88.8399 14.2505 88.9017 14.574C89.003 15.1045 89.0532 15.6621 88.9532 16.1967C88.9068 16.4449 88.826 16.6876 88.7026 16.9086C88.6397 17.0214 88.5661 17.1283 88.483 17.2272C88.4399 17.2785 88.3941 17.3276 88.3461 17.3746C88.3187 17.4014 88.2828 17.4249 88.2595 17.4549C88.2026 17.528 88.1906 17.4679 88.22 17.5752C88.261 17.7253 88.354 17.8733 88.4109 18.0193C88.4696 18.1698 88.5226 18.3223 88.5712 18.4764C88.6694 18.7883 88.7525 19.1059 88.8044 19.4289C88.9042 20.0491 88.8866 20.7099 88.5933 21.2791C88.4679 21.5226 88.2879 21.7361 88.0697 21.9023C87.9628 21.9836 87.8471 22.0536 87.7258 22.1112C87.6634 22.1408 87.5838 22.1535 87.5553 22.2138C87.5247 22.2786 87.5702 22.4074 87.5805 22.4799C87.6707 23.1107 87.716 23.773 87.5284 24.3912C87.3557 24.9606 86.9755 25.4632 86.4818 25.7961C85.5241 26.4417 84.2331 26.4053 83.2268 25.8884C82.9645 25.7537 82.719 25.5864 82.5001 25.3891C81.9427 26.1395 80.7956 26.1157 79.9808 25.9019C78.9658 25.6355 78.1513 24.9297 77.682 24.0024C77.0404 24.7835 75.6937 24.5301 75.2488 23.6827C75.1399 23.4753 75.0753 23.2467 75.0435 23.0154C75.0267 22.8938 75.0374 22.7711 75.0248 22.6504C75.0088 22.4966 74.9061 22.3472 74.847 22.1985C74.7321 21.909 74.6607 21.61 74.6576 21.2977C74.656 21.1347 74.6767 20.9758 74.6922 20.8141C74.7061 20.6685 74.6657 20.5329 74.6428 20.3892C74.9031 20.4321 75.2203 20.3619 75.4655 20.2864C75.7062 20.2123 75.9316 20.0172 76.1015 19.839C76.496 19.4253 76.7369 18.8829 76.9017 18.3431C77.2635 17.1584 77.1152 15.7369 75.9235 15.0867C75.3684 14.7838 73.7053 14.7848 73.0441 14.9345C72.3489 15.0919 71.5608 16.6259 71.522 16.7701C71.498 16.8594 71.5101 16.9698 71.4281 17.0293C71.2479 17.16 70.9508 16.9331 70.8179 16.8211C70.5886 16.6279 70.425 16.3707 70.2834 16.1101C69.9747 15.5423 69.7259 14.9333 69.5501 14.3117C69.4146 13.8324 69.3279 13.3382 69.1508 12.8712C68.9746 12.4065 68.6967 11.9911 68.2647 11.7278C67.7948 11.4414 67.2561 11.2906 66.7402 11.1106C66.2288 10.9322 65.7263 10.7142 65.3299 10.3358C65.2427 10.2526 65.1581 10.1641 65.0879 10.0661C65.0325 9.98879 64.9778 9.84071 64.8934 9.79166C64.7622 9.71537 64.5708 9.91378 64.4573 9.98581C63.8977 10.3413 63.4308 10.837 63.0542 11.3786C62.6797 11.9172 62.3724 12.4354 62.1227 13.0368C61.9375 13.4829 61.8219 14.0541 61.4961 14.4197C61.3507 14.5829 60.2696 14.6817 59.9195 14.5392C59.5693 14.3967 59.1769 14.0266 59.0594 13.7947C58.9391 13.5574 58.9103 13.2967 58.9617 13.0368C58.9919 12.884 59.0537 12.7412 59.0875 12.591C59.1159 12.4649 59.1417 12.3457 59.2031 12.2302C59.3195 12.0112 59.5182 11.8538 59.7579 11.788C59.5085 11.558 59.3018 11.2829 59.1588 10.9753C59.0101 10.6558 58.8842 10.2672 58.8484 9.91645C58.8194 9.63159 58.8642 9.33645 59.0202 9.09165C59.1838 8.83484 59.4736 8.66731 59.7243 8.50712C59.3413 8.20745 59.0135 7.84301 58.744 7.43952C58.2199 6.65485 57.8957 5.66577 58.1619 4.7303Z" fill="#191847"/>
<path fill-rule="evenodd" clip-rule="evenodd" d="M107.233 91.1268H58.4906C54.7452 91.1268 51.709 94.163 51.709 97.9084V136.902C51.709 140.647 54.7452 143.684 58.4906 143.684H107.233C110.978 143.684 114.014 140.647 114.014 136.902V97.9084C114.014 94.163 110.978 91.1268 107.233 91.1268ZM100.451 102.995C101.388 102.995 102.147 103.754 102.147 104.69V130.121C102.147 131.057 101.388 131.816 100.451 131.816H65.2721C64.3358 131.816 63.5767 131.057 63.5767 130.121V104.69C63.5767 103.754 64.3358 102.995 65.2721 102.995H100.451Z" fill="#C5CFD6"/>
<path fill-rule="evenodd" clip-rule="evenodd" d="M21.4001 142.268C26.8308 130.248 30.7582 119.782 32.3346 114.26C35.0338 104.805 37.0873 96.4856 37.6063 93.3786C38.8439 85.9696 28.0859 85.5381 26.6639 89.2203C24.5117 94.7934 20.7544 113.104 16.2397 140.762L21.4001 142.268ZM84.3925 104.547C79.4099 102.578 61.961 96.4142 53.5454 94.6707C51.1271 94.1697 48.7833 93.7041 46.5796 93.2834C40.0295 92.033 36.636 103.85 42.9445 104.757C58.6552 107.019 80.9278 109.354 82.8338 109.616C85.5052 109.983 87.5239 105.785 84.3925 104.547Z" fill="#B28B67"/>
<path fill-rule="evenodd" clip-rule="evenodd" d="M42.5594 90.0317L69.5106 76.312V73.3253H66.3054C40.2314 79.9693 26.9076 84.2273 26.334 86.0991C26.3278 86.1192 26.3221 86.1394 26.317 86.1595C26.3039 86.1768 26.291 86.1941 26.2783 86.2115C21.111 93.3181 18.0163 128.013 17.0006 130.611L26.9023 132.088C30.69 118.042 42.8083 108.258 42.4864 91.4358C42.5733 90.9423 42.5953 90.4743 42.5594 90.0317Z" fill="#1F28CF"/>
<path fill-rule="evenodd" clip-rule="evenodd" d="M67.2714 98.1798C69.7373 97.6861 72.0082 97.2456 73.9514 96.9047C86.5029 94.7032 90.163 87.9845 87.999 73.3253L64.873 73.3253C61.0953 74.4104 41.463 82.6434 31.2769 87.0224C24.5352 89.9206 26.6604 100.369 30.4783 103.087C30.499 103.254 30.5677 103.368 30.6901 103.418C51.2272 111.93 67.474 107.464 72.9014 108.891L75.4118 100.972L67.2714 98.1798Z" fill="#2B44FF"/>
<path fill-rule="evenodd" clip-rule="evenodd" d="M82.6889 103.289C84.0345 103.417 84.9897 103.619 85.5545 103.895C86.2415 104.23 87.1881 104.833 88.3944 105.705C88.0057 106.502 84.5125 113.664 77.9148 127.191C75.7966 126.849 74.9573 126.041 75.3968 124.766C75.8364 123.491 76.1909 122.427 76.4604 121.574L76.8791 109.416C76.8871 109.182 77.0833 108.999 77.3173 109.007C77.3213 109.007 77.3253 109.007 77.3293 109.007L79.1995 109.125C80.2623 108.265 80.9635 107.486 81.303 106.79C81.5789 106.224 81.7315 105.332 81.7607 104.112L81.7607 104.112C81.7719 103.644 82.1605 103.274 82.6285 103.285C82.6487 103.285 82.6688 103.287 82.6889 103.289Z" fill="#E4E4E4"/>
<path fill-rule="evenodd" clip-rule="evenodd" d="M23.8717 140.039C24.3459 141.305 24.5829 142.252 24.5829 142.881C24.5829 143.645 24.4556 144.76 24.201 146.227C23.3143 146.227 15.3457 146.227 0.295294 146.227C-0.32593 144.173 0.0326767 143.064 1.37111 142.9C2.70955 142.737 3.82141 142.589 4.7067 142.457L15.8178 137.504C16.0316 137.408 16.2822 137.504 16.3775 137.718C16.3792 137.722 16.3807 137.725 16.3823 137.729L17.0965 139.462C18.3355 140.04 19.3424 140.329 20.117 140.329C20.7464 140.329 21.6156 140.075 22.7246 139.566L22.7246 139.566C23.1502 139.371 23.6533 139.558 23.8484 139.984C23.8568 140.002 23.8646 140.02 23.8717 140.039Z" fill="#E4E4E4"/>
<path fill-rule="evenodd" clip-rule="evenodd" d="M44.9087 66.5957L32.9021 78.3087C29.4086 79.7989 26.5462 81.4443 24.3148 83.245C23.813 83.8503 23.2667 85.01 25.6277 84.4911C27.9886 83.9721 30.4953 83.5324 30.939 84.3002C31.3827 85.068 30.0752 86.2445 30.8953 87.2493C31.442 87.9192 33.2807 85.7884 36.4112 80.8569L48.8966 73.4959L44.9087 66.5957ZM98.2016 68.2476L89.3443 68.2824C94.8133 85.9371 97.7657 95.3046 98.2016 96.3849C99.1824 98.8154 97.107 102.517 96.2194 104.506C99.1101 105.8 98.8021 101.01 102.449 102.706C105.777 104.255 108.309 107.06 112.154 104.688C112.627 104.396 113.145 103.297 111.893 102.439C108.775 100.301 104.281 96.5583 103.673 95.3264C102.845 93.6465 101.021 84.6202 98.2016 68.2476Z" fill="#B28B67"/>
<path fill-rule="evenodd" clip-rule="evenodd" d="M73.0306 31.0814L69.3656 30.4528C63.0555 46.2157 52.0389 60.5383 36.3156 73.4207L48.1969 87.8553C63.9183 69.5126 73.6091 50.588 73.0306 31.0814Z" fill="#191847"/>
<path fill-rule="evenodd" clip-rule="evenodd" d="M89.0074 77.1399H56.3713C63.9324 58.7557 67.7129 43.1385 67.7129 30.2883L77.5576 28.8215C85.2946 41.2649 87.4796 56.5853 89.0074 77.1399Z" fill="#DDE3E9"/>
<path fill-rule="evenodd" clip-rule="evenodd" d="M77.7661 28.8285C77.7648 28.8261 77.7635 28.8238 77.7622 28.8215L77.1196 28.8215C76.3506 28.848 75.1794 28.8957 73.6059 28.9646L71.2271 35.7628C70.9755 44.0513 69.506 60.7549 66.8187 85.8737H88.2123C88.1562 87.6085 88.0638 89.3596 87.9349 91.1268H103.842C101.463 64.2821 92.7733 43.5137 77.7739 28.8215L77.7661 28.8285V28.8285Z" fill="#2F3676"/>
<path fill-rule="evenodd" clip-rule="evenodd" d="M86.7991 63.6756C86.1903 74.49 84.6659 81.945 82.2259 86.0407H88.2068C88.4686 78.2601 87.9994 70.8051 86.7991 63.6756V63.6756Z" fill="black" fill-opacity="0.1"/>
<path fill-rule="evenodd" clip-rule="evenodd" d="M83.4504 72.9015L72.9013 67.9973V72.9015H83.4504Z" fill="white" fill-opacity="0.2"/>
</svg>
